<svg width="128" height="128" viewBox="0 0 128 128" xmlns="http://www.w3.org/2000/svg">
  <rect width="128" height="128" rx="28" fill="#0066FF"/>
  <!-- Zhihu "知" character glyph -->
  <g fill="#FFFFFF">
    <!-- Top-left stroke of 矢 -->
    <path d="M 46 28 C 42 34 36 41 29 46 C 27.5 44 26 42.5 24 41 C 32 35 38 27.5 41.5 22 Z"/>
    <!-- Top horizontal of 矢 -->
    <path d="M 27 43.5 L 53 43.5 L 53 49.5 L 27 49.5 Z"/>
    <!-- Middle horizontal of 矢 -->
    <path d="M 23 59.5 L 57 59.5 L 57 65.5 L 23 65.5 Z"/>
    <!-- Main curving slant of 矢 -->
    <path d="M 43 45 C 43 62 38 78 24 90 C 22 88 20 86 18 84.5 C 31.5 73.5 36.5 59.5 37 45 Z"/>
    <!-- Right slant dot of 矢 -->
    <path d="M 43 67 C 47 73 52 80 57 85 C 55 86.5 53 88 51 90 C 46 84.5 41.5 78 38 72 Z"/>
    <!-- Radical 口: left vertical -->
    <path d="M 68 44 L 74 44 L 74 88 L 68 88 Z"/>
    <!-- Radical 口: top and right -->
    <path d="M 68 44 L 105 44 L 105 88 L 99 88 L 99 50 L 74 50 L 74 44 Z"/>
    <!-- Radical 口: bottom horizontal -->
    <path d="M 70 82 L 105 82 L 105 88 L 70 88 Z"/>
  </g>
</svg>
